<svg width="40" height="40" viewBox="0 0 40 40" fill="#FABC60" xmlns="http://www.w3.org/2000/svg">
<g id="ion:beer-sharp">
<path id="Vector" d="M26.2501 12.1875H21.5626V11.8512C22.0353 11.3166 22.3455 10.6581 22.4566 9.95319C22.5677 9.24828 22.4752 8.52629 22.1899 7.87218C21.9046 7.21808 21.4384 6.65909 20.8461 6.26099C20.2538 5.86289 19.5602 5.64225 18.8468 5.62504C18.5477 4.58091 17.9919 3.6283 17.2302 2.85414C16.6348 2.24484 15.9233 1.76125 15.1376 1.43202C14.3519 1.1028 13.5082 0.934652 12.6563 0.937536C10.9038 0.937536 9.27079 1.65707 8.02743 2.96898C7.41739 2.77482 6.76389 2.76336 6.14741 2.936C5.53094 3.10864 4.97844 3.45785 4.55797 3.9406C4.13751 4.42335 3.86744 5.01856 3.78105 5.65289C3.69466 6.28722 3.79571 6.93297 4.07177 7.51058C4.01317 7.56097 3.95985 7.61254 3.90595 7.66644C3.55632 8.01537 3.27959 8.43036 3.09189 8.88726C2.90418 9.34416 2.80923 9.83383 2.81259 10.3278C2.81304 10.8422 2.92161 11.3508 3.13126 11.8206C3.34092 12.2904 3.64697 12.7108 4.02958 13.0547C4.2311 13.2379 4.4517 13.399 4.68759 13.5352V28.125C4.68759 28.3737 4.78636 28.6121 4.96217 28.7879C5.13799 28.9638 5.37645 29.0625 5.62509 29.0625H20.6251C20.8737 29.0625 21.1122 28.9638 21.288 28.7879C21.4638 28.6121 21.5626 28.3737 21.5626 28.125V25.3125H26.2501C26.4987 25.3125 26.7372 25.2138 26.913 25.0379C27.0888 24.8621 27.1876 24.6237 27.1876 24.375V13.125C27.1876 12.8764 27.0888 12.6379 26.913 12.4621C26.7372 12.2863 26.4987 12.1875 26.2501 12.1875ZM10.3126 25.3125H8.43759V14.0625H10.3126V25.3125ZM14.0626 25.3125H12.1876V14.0625H14.0626V25.3125ZM17.8126 25.3125H15.9376V14.0625H17.8126V25.3125ZM18.7501 11.25C18.262 11.25 17.546 10.9465 17.1862 10.5873L16.912 10.3125H8.71825L8.49618 10.9295C8.15575 11.867 7.39286 12.1254 6.81278 12.177C6.53837 12.2016 6.26183 12.1692 6.00056 12.0818C5.73929 11.9944 5.49893 11.8538 5.29462 11.669C5.10505 11.4992 4.95327 11.2916 4.8491 11.0594C4.74493 10.8272 4.6907 10.5758 4.68993 10.3213C4.68832 10.0744 4.73582 9.82955 4.82967 9.60111C4.92352 9.37267 5.06185 9.16516 5.23661 8.99066C5.24598 8.9807 5.25595 8.97191 5.26591 8.96195C5.61356 8.62529 6.07864 8.4372 6.56259 8.43754C6.56786 8.43754 7.09696 8.45746 7.52352 8.77738L8.27352 9.33988L9.39852 7.83988L8.64852 7.27738C8.04109 6.83443 7.31403 6.58527 6.56259 6.56254C6.28666 6.56291 6.0116 6.59336 5.74227 6.65336C5.60564 6.33602 5.59062 5.97949 5.70007 5.65178C5.80952 5.32407 6.03578 5.04812 6.33569 4.87658C6.6356 4.70504 6.98817 4.64991 7.32613 4.72171C7.66409 4.7935 7.96379 4.98721 8.16805 5.26586L8.18153 5.28637L8.20497 5.31332C8.32724 5.47297 8.42591 5.64939 8.49794 5.83715L8.82723 6.71605L10.585 6.05746L10.2557 5.17855C10.1136 4.8047 9.91605 4.45431 9.66981 4.1391C9.64755 4.10863 9.62352 4.08051 9.60009 4.05062C10.452 3.24906 11.522 2.81254 12.6563 2.81254C13.2592 2.8108 13.8563 2.93012 14.4122 3.16343C14.968 3.39673 15.4714 3.73927 15.8925 4.17074C16.4191 4.71105 16.8078 5.3702 17.0259 6.09248C17.2439 6.81475 17.2848 7.57891 17.1452 8.32035L16.9694 9.24144L18.811 9.59301L18.9868 8.67191C19.0582 8.2965 19.0967 7.91555 19.1016 7.53344C19.5599 7.62111 19.969 7.87649 20.2491 8.2497C20.5291 8.6229 20.6599 9.0871 20.616 9.55161C20.5721 10.0161 20.3565 10.4476 20.0115 10.7616C19.6664 11.0757 19.2167 11.2498 18.7501 11.25ZM25.3126 23.4375H21.5626V14.0625H25.3126V23.4375Z" fill="#FABC60"/>
</g>
</svg>
