<svg width="205" height="218" viewBox="0 0 205 218" fill="none" xmlns="http://www.w3.org/2000/svg">
<mask id="mask0_745_3217" style="mask-type:alpha" maskUnits="userSpaceOnUse" x="5" y="0" width="200" height="200">
<circle cx="105" cy="100" r="100" fill="#D9D9D9"/>
</mask>
<g mask="url(#mask0_745_3217)">
<path d="M28.9767 25.578C31.0687 24.0574 39.7278 17.9592 47.2671 15.746C46.7969 15.1251 46.2749 14.313 45.733 13.4652C45.4022 12.9397 45.0516 12.3944 44.685 11.8451C44.6013 11.7217 44.4857 11.6301 44.3502 11.5784C41.9035 10.6031 30.9213 17.2467 28.1358 19.8261C27.4305 20.467 26.7491 21.2392 26.9882 21.9995C27.3189 23.0623 28.2355 24.4555 28.9687 25.574C28.9687 25.574 28.9687 25.578 28.9727 25.578H28.9767Z" fill="#F2DBD1"/>
<path d="M183.622 192.945C181.211 188.156 175.548 178.643 166.483 165.3C166.419 165.208 166.351 165.109 166.288 165.013C166.268 164.978 166.244 164.942 166.224 164.91C165.515 163.859 164.769 162.788 164.012 161.69C163.988 161.654 163.964 161.622 163.94 161.586L163.873 161.479C163.207 160.511 162.526 159.528 161.829 158.529C163.407 157.212 164.945 155.56 166.403 153.617C174.528 142.854 174.544 123.042 166.447 109.453C158.497 96.1099 141.952 88.1567 133.994 84.3394C133.468 84.0806 132.986 83.8537 132.544 83.6348C129.715 82.2575 125.487 80.4981 121.753 78.9537C121.067 78.6671 120.362 78.3765 119.665 78.0819C119.637 78.066 119.613 78.058 119.581 78.0461C118.473 77.5804 117.389 77.1266 116.457 76.7246C116.449 76.7166 116.437 76.7086 116.429 76.7046C116.405 76.6967 116.385 76.6847 116.361 76.6808C116.357 76.6768 116.353 76.6768 116.341 76.6728C114.963 76.0638 113.919 75.5821 113.592 75.3473C113.333 74.5552 112.978 70.6462 112.663 66.0328C113.424 66.4149 114.249 66.6099 115.078 66.6099C116.102 66.6099 117.126 66.3154 118.015 65.7064C119.529 64.6714 120.358 62.904 120.263 61.1128C121.259 61.3715 122.255 61.2402 122.948 60.7108C123.586 60.2211 123.98 59.3932 124.028 58.4418C124.072 57.6656 123.881 56.8815 123.498 56.1809C125.001 55.8425 126.232 54.7837 126.658 53.3547C126.973 52.2919 126.794 51.0977 126.172 50.0747C125.706 49.3104 125.024 48.7094 124.231 48.3232C125.331 46.8266 125.447 44.7845 124.383 43.3237C123.654 42.3166 122.446 41.7354 121.155 41.6916C121.35 40.7005 121.091 39.6337 120.402 38.8535C119.673 38.0255 118.605 37.6434 117.553 37.7628C117.601 36.6124 117.118 35.474 116.206 34.7495C115.166 33.9295 113.747 33.7862 112.548 34.2878C112.265 32.6358 111.03 31.2347 109.384 30.9123C108.304 30.7053 107.156 30.9919 106.236 31.7004C105.817 32.0228 105.467 32.4169 105.2 32.8508C104.16 31.4059 102.406 30.5898 100.677 30.9123C99.366 31.1511 98.2462 32.0109 97.5927 33.2091C96.9272 32.3692 96.0346 31.7243 95.0145 31.3661C93.5999 30.8645 92.0936 30.964 90.8862 31.6328C89.2405 32.5523 88.308 34.4032 88.3558 36.3537C86.977 35.7646 85.3672 35.8681 84.2076 36.7518C83.3229 37.4284 82.773 38.5072 82.6973 39.7173C82.6495 40.5532 82.8328 41.3851 83.2233 42.1136C81.7928 42.4838 80.6332 43.5665 80.2506 45.0114C79.7605 46.8504 80.6651 48.7731 82.3228 49.6926C81.5537 51.0141 81.4062 52.5387 81.988 53.7089C82.4582 54.6563 83.4026 55.3808 84.5782 55.7032C85.5744 55.9818 86.6463 55.9381 87.6505 55.5957C87.3477 58.0557 87.0767 60.4202 86.985 61.3118C86.8177 62.9797 86.6503 68.4848 91.2289 71.0403L91.5357 78.687C90.3044 77.7675 89.2763 76.828 88.5033 75.8249C86.0446 72.6286 77.2062 58.9036 69.2923 46.4723C69.2405 46.3927 69.1886 46.317 69.1408 46.2374C69.1209 46.2016 69.101 46.1737 69.081 46.1419C62.4383 35.685 56.5009 26.2232 55.6481 24.822C55.6242 24.7822 55.6043 24.7504 55.5804 24.7106C55.2456 24.1612 54.879 23.5443 54.5005 22.9113C54.4407 22.8158 54.3849 22.7123 54.3252 22.6208C54.3292 22.6168 54.3252 22.6128 54.3212 22.6048C51.1771 17.3147 50.4997 16.4708 49.6549 16.6141C49.5672 16.63 49.4557 16.6579 49.3202 16.6937C49.2086 16.7295 49.0731 16.7614 48.9297 16.7892C48.8819 16.8131 48.8261 16.833 48.7703 16.8489C41.2469 18.672 31.7271 25.3952 29.7705 26.8163C29.7745 26.8203 29.7785 26.8322 29.7864 26.8362C29.7625 26.8561 29.7346 26.88 29.7028 26.8999C29.6988 26.9038 29.6988 26.9118 29.6948 26.9118C29.6071 26.9755 29.5115 27.0432 29.4397 27.0909C28.9934 27.4134 28.057 28.0741 28.583 28.9101C28.6268 28.9777 29.1728 29.8495 30.1012 31.3262C30.6711 32.2418 31.3844 33.3842 32.2172 34.7097C32.2371 34.7495 32.261 34.7893 32.2889 34.8252C35.8673 40.5373 41.5378 49.5851 46.993 58.3025C47.013 58.3383 47.0369 58.3702 47.0568 58.406C47.1206 58.5135 47.1843 58.609 47.2481 58.7125C54.7834 70.7617 61.8406 82.0704 62.3228 82.9382C62.3945 83.0696 62.4782 83.2168 62.5658 83.3721C63.4664 84.9444 65.0564 87.7228 65.6501 92.404C62.3985 94.4898 40.1351 109.552 36.8357 132.042C35.166 143.403 36.6085 154.043 41.0078 162.804C44.9727 170.714 51.0297 176.442 58.051 178.922C58.84 179.204 59.633 179.427 60.4101 179.602H60.426C61.9004 179.933 63.3628 180.084 64.7934 180.084C65.698 180.084 66.5945 180.024 67.4712 179.909C64.5941 193.343 64.8372 193.701 65.0603 194.012C65.1719 194.167 65.5864 194.446 66.2718 194.8C65.8613 197.224 64.1399 207.546 62.6017 217.402C62.6017 217.421 62.5977 217.445 62.5937 217.465C61.8326 222.381 61.1153 227.17 60.6292 230.808C59.8163 236.906 57.2819 257.812 58.856 270.813C59.5971 276.879 58.7922 279.841 58.0829 282.452C57.5728 284.343 57.1305 285.983 57.4094 288.315C58.0112 293.295 57.9514 297.546 55.8275 304.56C54.4447 309.134 55.8195 311.144 56.9272 312.756C57.5808 313.719 58.0988 314.472 58.047 315.654C58.043 315.741 58.039 315.829 58.0271 315.921C57.9434 317.202 57.6366 318.79 57.3417 320.327C56.7479 323.38 56.1821 326.27 57.003 327.898C57.2142 328.32 57.3138 328.961 57.3576 329.713L57.3735 331.397C57.3696 331.906 57.3457 332.432 57.3257 332.933C57.2221 335.553 57.1983 337.197 57.9115 338.009C58.6647 338.872 62.7093 340.827 67.9215 342.487C68.6906 342.73 69.5274 342.984 70.4239 343.231C67.9772 344.541 63.6098 347.188 61.3624 350.508C60.6611 351.535 60.167 352.629 59.9956 353.764C59.9916 353.811 59.9797 353.859 59.9797 353.911C59.9119 354.42 59.9119 354.938 59.9876 355.455C60.3622 358.027 61.1911 359.671 62.5858 360.63C63.6617 361.371 65.0324 361.701 66.8495 361.701C69.3162 361.701 72.6076 361.092 77.1026 360.081C86.5467 357.955 97.5289 353.326 102.115 350.508C103.004 349.962 103.654 349.481 104.004 349.102C105.726 347.24 105.853 343.737 105.829 342.391C107.611 341.651 108.965 340.918 109.882 340.357C109.838 340.688 109.81 340.974 109.81 341.217C109.81 343.219 111.524 343.637 121.892 344.935C119.466 347.518 113.807 353.835 113.672 356.92C113.58 358.942 113.297 365.092 120.282 365.709C120.45 365.725 120.617 365.729 120.796 365.729C127.172 365.729 144.706 356.984 148.619 353.827C152.942 350.34 152.177 345.241 151.396 341.026C152.034 340.755 152.679 340.469 153.337 340.166C153.536 340.075 153.687 339.999 153.791 339.963C155.066 339.41 155.002 337.26 154.488 333.785L154.253 332.293C154.225 332.109 154.19 331.918 154.162 331.727C153.978 330.613 153.803 329.558 153.723 328.782C153.616 327.667 153.775 326.294 153.947 324.833C154.225 322.413 154.516 319.909 153.664 317.963C153.42 317.405 153.237 316.713 153.11 315.921C152.584 312.708 152.934 307.88 153.536 303.911C154.269 299.067 152.687 294.513 151.532 291.189C151.376 290.747 151.229 290.326 151.097 289.923C150.077 286.854 149.846 272.242 149.846 266.872C149.846 263.262 147.26 237.038 146.841 232.783C158.497 228.181 175.616 217.569 183.837 202.618C185.455 199.672 185.383 196.42 183.634 192.941L183.622 192.945Z" fill="#E0D9D1"/>
<path d="M181.678 192.46C179.267 187.671 173.604 178.158 164.539 164.815L163.658 166.113C161.526 168.68 155.043 175.133 147.738 180.192C138.697 186.457 123.594 191.942 122.817 192.042C122.773 192.046 122.734 192.05 122.694 192.05C121.853 192.05 121.179 190.927 119.793 188.603C119.283 187.747 118.701 186.776 118.095 185.856C117.394 184.785 114.836 180.67 111.875 175.905C106.906 167.912 100.729 157.964 99.1392 155.684C97.888 153.884 93.7796 147.404 89.7948 140.928C82.1478 128.516 82.2753 128.353 82.6937 127.836C82.9169 127.553 83.3991 127.282 86.6228 125.535C89.4321 124.01 93.68 121.705 99.8605 118.183C109.791 112.534 118.98 104.306 121.207 102.256C121.55 101.95 121.941 101.54 122.247 101.222C120.339 99.0043 118.45 97.0698 116.553 95.4616C114.485 93.7062 112.405 92.1418 110.357 90.7248L109.149 89.9048L108.396 89.4032L107.276 88.6787L106.025 87.8946C103.152 86.1192 100.422 84.6146 97.9637 83.2572C95.3536 81.8163 93.0265 80.5345 91.0819 79.2568L89.5796 78.2059C88.3483 77.2864 87.3202 76.347 86.5471 75.3439C84.0885 72.1475 75.25 58.4225 67.3361 45.9912C66.826 46.5883 66.332 47.1257 66.332 47.1257C59.4979 52.0058 58.3025 52.7701 58.2467 52.798C55.6764 54.4021 52.887 55.7754 49.9143 56.886C49.6673 56.9815 49.4162 57.0691 49.1692 57.1567C48.416 57.4274 47.6549 57.6781 46.8819 57.913C46.858 57.917 46.838 57.9289 46.8181 57.9329C46.2522 58.112 45.7103 58.1916 45.2839 58.2235C52.8193 70.2726 59.8765 81.5814 60.3587 82.4492C60.4304 82.5805 60.5141 82.7278 60.6017 82.8831C61.5023 84.4554 63.0923 87.2338 63.686 91.9149L63.8414 93.5589C63.945 95.0437 63.945 96.6916 63.8015 98.5227C63.5864 101.281 63.1401 104.915 62.6619 108.773C61.4266 118.808 60.0239 130.18 61.7215 133.89C62.0801 134.682 62.7934 136.191 63.7816 138.253L64.4352 139.598C65.4075 141.612 66.591 144.028 67.9299 146.735L68.6591 148.2C69.4561 149.8 70.3048 151.48 71.1895 153.235L71.9546 151.516C72.7197 149.876 73.5844 148.399 74.5288 147.101C77.3222 143.288 80.271 141.354 82.2275 142.05C83.1082 142.365 84.1323 143.328 83.9808 146.118C83.941 146.795 83.8414 147.464 83.69 148.116C84.1323 147.985 84.5467 147.969 84.9133 148.101C86.5232 148.698 85.9972 151.289 85.8218 152.145C85.7063 152.71 85.5788 153.251 85.4473 153.769C85.5708 153.717 85.6864 153.665 85.8019 153.63C87.1369 153.16 87.9179 153.45 88.3443 153.781C90.4124 155.405 88.2805 162.259 85.0727 167.072C84.3195 168.198 83.2397 169.512 81.8888 170.849C81.9167 170.897 81.9406 170.953 81.9725 171.001L80.793 171.88C83.5226 176.908 86.5152 182.067 90.1614 188.026C92.4487 191.771 94.6164 195.469 96.7045 199.096L101.494 207.045C116.039 231.394 119.016 232.174 124.563 234.909C130.106 237.635 144.877 232.293 144.877 232.293C156.533 227.692 173.652 217.08 181.873 202.129C183.491 199.183 183.419 195.931 181.67 192.452L181.678 192.46ZM172.931 202.232C172.799 202.61 172.385 202.817 172.006 202.69C171.871 202.642 157.98 198.315 144.618 206.623C137.892 210.802 133.58 218.079 132.481 227.095L132.457 227.298C132.409 227.664 132.09 227.935 131.731 227.935C131.703 227.935 131.668 227.931 131.64 227.931C131.241 227.879 130.958 227.513 131.006 227.115L131.03 226.916C132.19 217.454 136.74 209.807 143.849 205.381C157.772 196.715 172.325 201.257 172.473 201.301C172.851 201.432 173.058 201.846 172.931 202.228V202.232Z" fill="#2F6457"/>
<path d="M152.523 333.299C152.367 333.367 152.208 333.439 152.044 333.51C152.04 333.514 152.028 333.514 152.024 333.518C151.941 333.558 151.642 333.697 151.136 333.916C148.299 335.122 138.994 338.577 125.426 338.577C120.707 338.577 115.487 338.16 109.837 337.085C109.578 337.037 109.323 336.989 109.06 336.934C108.721 336.866 108.474 336.567 108.47 336.233C108.47 336.181 108.474 336.129 108.486 336.078C108.566 335.684 108.948 335.421 109.347 335.504C109.562 335.548 109.773 335.588 109.988 335.632C122.823 338.088 133.312 337.065 139.891 335.755C143.429 335.055 146.242 334.195 148.199 333.498C149.478 333.044 150.395 332.658 150.905 332.427C151.06 332.36 151.176 332.3 151.259 332.26C151.331 332.225 151.399 332.197 151.475 332.169C151.753 332.045 152.024 331.926 152.287 331.803C152.26 331.619 152.224 331.428 152.196 331.237C152.013 330.123 151.837 329.068 151.757 328.292C151.65 327.177 151.809 325.804 151.981 324.343C152.26 321.923 152.55 319.419 151.698 317.473C151.455 316.915 151.267 316.223 151.144 315.43C150.618 312.218 150.968 307.39 151.57 303.421C152.303 298.577 150.721 294.023 149.566 290.699C149.41 290.257 149.263 289.835 149.131 289.433C148.111 286.364 147.88 271.752 147.88 266.382C147.88 262.772 145.294 236.548 144.876 232.292C144.876 232.292 130.104 237.634 124.561 234.908C119.014 232.177 116.033 231.393 101.493 207.044L96.7027 199.095L85.1666 198.056C73.479 197.001 65.8082 193.526 64.4135 192.726C64.5609 191.122 66.0353 183.917 67.0554 179.168C72.5306 178.065 77.3443 175 80.7912 171.88L81.9707 171C81.9428 170.952 81.9189 170.896 81.887 170.849C83.2339 169.511 84.3138 168.197 85.0709 167.071C88.2787 162.258 90.4107 155.404 88.3425 153.78C87.9201 153.449 87.1351 153.159 85.8002 153.629C85.6846 153.668 85.5651 153.716 85.4455 153.768C85.577 153.254 85.7045 152.709 85.8201 152.144C85.9954 151.288 86.5214 148.697 84.9116 148.1C84.545 147.968 84.1345 147.984 83.6882 148.116C83.8396 147.463 83.9432 146.794 83.9791 146.117C84.1305 143.327 83.1064 142.364 82.2258 142.049C80.2692 141.353 77.3204 143.287 74.527 147.101C73.5826 148.398 72.7179 149.875 71.9528 151.515L71.1877 153.235L69.7532 156.526C69.5938 156.897 69.7571 157.323 70.1277 157.486C70.4983 157.645 70.9327 157.482 71.0921 157.112L72.6581 153.517L72.674 153.489L72.9729 152.809C73.7659 150.986 74.6904 149.357 75.7145 147.96C78.2369 144.517 80.6995 143.048 81.7396 143.422C82.3174 143.625 82.6004 144.581 82.5246 146.034C82.4649 147.112 82.2297 148.155 81.883 149.123C80.1696 150.436 78.4401 152.618 77.6153 154.11C77.1371 154.966 76.906 155.635 77.3084 156.128C77.5475 156.415 77.9261 156.507 78.3286 156.375C79.3128 156.053 81.7635 153.453 83.0984 150.03C83.7121 149.596 84.1943 149.389 84.4095 149.473C84.4135 149.473 84.8119 149.799 84.3935 151.853C84.1584 153 83.8874 153.999 83.6045 154.855C82.1979 155.906 80.9466 157.362 80.6438 158.692C80.58 158.959 80.3967 159.771 80.9028 160.228C81.1578 160.463 81.5005 160.531 81.8512 160.412C82.7079 160.133 83.8795 158.481 84.8398 155.758C85.322 155.436 85.8161 155.169 86.2903 155.002C86.9239 154.779 87.3025 154.823 87.4419 154.93C88.3226 155.627 87.2467 161.184 83.8556 166.263C83.1024 167.389 82.0066 168.715 80.6318 170.056C80.6279 170.056 80.6278 170.06 80.6239 170.06C80.5123 170.124 80.4246 170.208 80.3608 170.307C80.2453 170.419 80.1217 170.53 80.0022 170.642C76.623 173.774 71.7974 176.871 66.3142 177.838C65.1905 178.037 64.0309 178.145 62.8594 178.145C61.6878 178.145 60.5242 178.037 59.3288 177.811C59.3328 175.769 59.4364 168.735 60.6318 163.182C61.7675 157.936 66.7884 150.747 68.6573 148.203L67.9281 146.738C66.5294 148.581 60.5243 156.769 59.2053 162.875C58.0218 168.357 57.8783 175.032 57.8664 177.472C57.44 177.357 57.0056 177.217 56.5713 177.062C39.7751 171.131 33.6663 149.787 36.3123 131.767C39.3647 111.009 59.1495 96.6867 63.8357 93.5619L63.6803 91.918C60.4286 94.0038 38.1652 109.066 34.8658 131.556C33.1961 142.917 34.6387 153.557 39.0379 162.318C43.0029 170.228 49.0598 175.956 56.0811 178.435C56.8701 178.718 57.6631 178.941 58.4402 179.116H58.4561C59.9305 179.447 61.3929 179.598 62.8235 179.598C63.7281 179.598 64.6246 179.538 65.5013 179.423C62.6242 192.857 62.8674 193.215 63.0905 193.526C63.2021 193.681 63.6165 193.96 64.3019 194.314C63.8914 196.738 62.17 207.064 60.6318 216.916C60.6318 216.935 60.6278 216.959 60.6239 216.979C59.8627 221.895 59.1455 226.684 58.6593 230.322C57.8464 236.42 55.312 257.326 56.8861 270.327C57.6272 276.393 56.8223 279.355 56.113 281.966C55.603 283.857 55.1606 285.497 55.4396 287.829C56.0413 292.809 55.9815 297.06 53.8576 304.074C52.4748 308.648 53.8496 310.658 54.9574 312.27C55.6109 313.233 56.1289 313.986 56.0771 315.168C56.0731 315.255 56.0692 315.343 56.0572 315.434C55.9735 316.716 55.6667 318.304 55.3718 319.841C54.7781 322.894 54.2122 325.784 55.0331 327.412C55.2443 327.834 55.3439 328.475 55.3878 329.227C55.7185 329.422 56.0692 329.613 56.4278 329.792C56.4358 329.792 56.4438 329.796 56.4517 329.8C56.4716 329.808 56.6111 329.88 56.8662 329.991C57.1092 330.099 57.4559 330.25 57.8982 330.433C63.748 332.83 86.3939 340.862 107.96 331.524C107.952 331.496 107.936 331.472 107.92 331.44C106.231 328.232 105.892 323.463 106.88 316.863C106.952 316.374 107.008 315.896 107.035 315.438C107.215 312.931 106.84 310.845 106.509 308.962C106.111 306.725 105.732 304.611 106.358 302.326C107.35 298.68 106.864 293.868 104.824 287.18C104.031 285.134 104.346 283.184 104.684 281.122C104.999 279.203 105.326 277.213 104.8 274.9C104.055 271.601 104.852 265.713 105.438 261.414C105.736 259.217 106.015 257.147 105.92 256.558C105.808 255.905 105.147 254.564 104.497 253.27C103.29 250.834 102.038 248.314 102.389 246.798C102.473 246.439 102.612 245.982 102.792 245.408C103.672 242.606 105.302 237.388 102.525 234.454C100.357 232.173 101.449 229.184 102.409 226.549C103.397 223.842 103.899 222.118 102.588 221.024C100.947 219.654 98.9342 218.627 97.153 217.716C94.8856 216.557 93.0925 215.638 92.4708 214.316C92.2995 213.95 92.4629 213.512 92.8255 213.345C93.1921 213.174 93.6224 213.337 93.7938 213.695C94.2042 214.571 95.9615 215.467 97.8185 216.418C99.6674 217.361 101.76 218.432 103.521 219.905C105.716 221.732 104.688 224.554 103.78 227.042C102.883 229.502 102.042 231.823 103.585 233.451C106.952 237.005 105.151 242.753 104.182 245.842C104.023 246.368 103.879 246.818 103.808 247.12C103.573 248.131 104.864 250.722 105.804 252.617C106.557 254.134 107.211 255.443 107.358 256.307C107.486 257.079 107.271 258.739 106.88 261.601C106.31 265.793 105.533 271.529 106.223 274.574C106.808 277.165 106.442 279.39 106.119 281.353C105.804 283.303 105.525 284.983 106.187 286.671C106.191 286.691 106.203 286.711 106.207 286.723C108.338 293.701 108.837 298.776 107.761 302.705C107.219 304.675 107.557 306.542 107.94 308.703C108.291 310.65 108.673 312.807 108.494 315.43C108.466 315.956 108.406 316.501 108.319 317.07C107.374 323.352 107.665 327.83 109.211 330.756C109.351 331.018 109.454 331.289 109.55 331.572C109.554 331.58 109.558 331.588 109.566 331.596C109.59 331.643 109.606 331.691 109.614 331.743C109.681 332.069 109.518 332.416 109.195 332.559C108.932 332.674 108.669 332.794 108.406 332.909C100.708 336.221 92.8853 337.371 85.7045 337.371C72.4788 337.371 61.4567 333.443 57.436 331.811C57.2128 331.719 57.0136 331.635 56.8382 331.564C56.4198 331.389 56.129 331.257 55.9616 331.186C55.9457 331.182 55.9337 331.17 55.9178 331.166C55.8819 331.146 55.858 331.138 55.838 331.126C55.8301 331.126 55.8181 331.122 55.8102 331.11C55.6707 331.042 55.5272 330.971 55.3917 330.899C55.3878 331.408 55.3638 331.934 55.3439 332.435C55.2403 335.055 55.2164 336.699 55.9297 337.511C56.6828 338.374 60.7274 340.329 65.9396 341.989C66.7087 342.232 67.5455 342.486 68.4421 342.733C65.9954 344.043 61.628 346.69 59.3806 350.01C58.6792 351.037 58.1852 352.131 58.0138 353.266C58.0098 353.313 57.9979 353.361 57.9979 353.413C57.9301 353.922 57.9301 354.44 58.0058 354.957C58.3804 357.529 59.2093 359.173 60.604 360.132C61.6799 360.873 63.0506 361.203 64.8677 361.203C67.3344 361.203 70.6258 360.594 75.1208 359.583C84.5649 357.457 95.5471 352.828 100.134 350.01C101.026 349.464 101.672 348.983 102.022 348.604C103.744 346.742 103.871 343.239 103.848 341.893C105.629 341.153 106.984 340.42 107.9 339.859C107.856 340.19 107.828 340.476 107.828 340.719C107.828 342.721 109.542 343.139 119.911 344.437C117.484 347.02 111.825 353.337 111.69 356.422C111.598 358.444 111.315 364.594 118.301 365.211C118.468 365.227 118.635 365.231 118.815 365.231C125.19 365.231 142.724 356.486 146.637 353.329C150.96 349.842 150.195 344.743 149.414 340.528C150.052 340.257 150.698 339.971 151.355 339.668C151.554 339.577 151.706 339.501 151.809 339.465C153.084 338.912 153.021 336.762 152.507 333.287L152.523 333.299ZM62.2417 216.127C63.5767 215.781 66.0393 214.985 68.3784 213.405C69.1236 212.903 70.5063 211.056 71.4268 204.309C71.8452 201.252 72.0006 198.342 72.0484 197.152C72.5147 197.283 72.9968 197.415 73.4949 197.542C73.3475 201.073 72.5983 212.318 69.1953 214.611C66.2465 216.605 63.1981 217.425 61.9987 217.688C62.0823 217.166 62.158 216.649 62.2417 216.127ZM61.2096 350.018C62.2138 348.796 63.489 347.709 64.6844 346.825C67.1869 344.974 69.8089 343.669 70.582 343.298C74.8697 344.353 80.1935 345.253 85.8878 345.253H86.2345C88.9163 345.233 91.371 345.03 93.5905 344.7C92.2636 346.196 88.9004 348.895 80.6876 351.618C68.5816 355.638 62.0504 355.598 60.1337 354.344C59.7512 354.098 59.54 353.803 59.4882 353.437C59.6834 352.243 60.3409 351.08 61.2096 350.018ZM100.963 347.625C100.456 348.171 99.1096 349.018 97.1849 350.018C92.1122 352.649 83.0347 356.315 74.8139 358.166C67.5774 359.794 63.5209 360.363 61.4448 358.938C60.5641 358.329 59.9903 357.33 59.6436 355.75C60.6677 356.291 62.166 356.554 64.0708 356.554C68.1552 356.554 74.0966 355.344 81.1419 353.003C92.2038 349.333 94.9693 345.663 95.6268 344.353C98.2608 343.848 100.524 343.175 102.401 342.482C102.373 343.88 102.138 346.348 100.959 347.625H100.963ZM113.16 356.502C113.276 353.919 119.169 347.323 121.732 344.672C122.409 344.759 123.122 344.847 123.867 344.938L124.238 344.986C125.513 345.141 126.972 345.245 128.613 345.245C132.519 345.245 137.436 344.66 143.274 342.825C143.266 342.928 143.25 343.036 143.23 343.155C143.23 343.163 143.226 343.175 143.226 343.183C143.206 343.298 143.178 343.422 143.142 343.549C143.106 343.685 143.062 343.832 143.007 343.987C142.78 344.616 142.377 345.376 141.692 346.252C141.52 346.471 141.333 346.694 141.122 346.929C141.07 346.988 141.014 347.044 140.962 347.104C140.851 347.219 140.739 347.343 140.616 347.462C139.604 348.489 138.201 349.631 136.284 350.857C135.95 351.072 135.595 351.291 135.224 351.514C134.854 351.733 134.463 351.956 134.057 352.187C133.79 352.338 133.507 352.49 133.22 352.641C132.937 352.792 132.642 352.947 132.339 353.103C132.032 353.258 131.722 353.413 131.403 353.568C117.133 360.53 114.666 360.053 113.14 357.242C113.14 357.003 113.144 356.757 113.16 356.502ZM145.732 352.207C141.556 355.574 123.501 364.216 118.448 363.77C115.583 363.516 113.961 362.282 113.387 359.774C114.14 360.323 115.061 360.614 116.252 360.614C119.293 360.614 124.059 358.771 132.044 354.874C143.812 349.134 144.836 344.166 144.748 342.343C145.82 341.977 146.924 341.571 148.052 341.113C148.793 345.189 149.311 349.321 145.728 352.207H145.732Z" fill="#2C4858"/>
<path d="M164.279 164.429C163.57 163.378 162.825 162.307 162.068 161.209C162.044 161.173 162.02 161.141 161.996 161.105L161.928 160.998C161.263 160.03 160.581 159.047 159.884 158.048C161.462 156.731 163 155.079 164.459 153.136C172.584 142.373 172.6 122.561 164.502 108.972C156.553 95.6289 140.008 87.6758 132.05 83.8584C131.524 83.5997 131.042 83.3728 130.599 83.1539C127.77 81.7766 123.542 80.0172 119.808 78.4727C119.123 78.1861 118.418 77.8955 117.72 77.601C117.692 77.5851 117.668 77.5771 117.637 77.5652C116.529 77.0994 115.445 76.6457 114.512 76.2436C114.504 76.2357 114.493 76.2277 114.485 76.2237C114.461 76.2158 114.441 76.2038 114.417 76.1998C114.413 76.1959 114.409 76.1959 114.397 76.1919C113.018 75.5829 111.974 75.1012 111.647 74.8663C111.388 74.0742 111.034 70.1653 110.719 65.5518C111.48 65.934 112.305 66.129 113.134 66.129C114.158 66.129 115.182 65.8344 116.071 65.2254C117.585 64.1905 118.414 62.4231 118.318 60.6319C119.314 60.8906 120.31 60.7592 121.004 60.2298C121.641 59.7402 122.036 58.9123 122.084 57.9609C122.127 57.1847 121.936 56.4005 121.554 55.6999C123.056 55.3616 124.287 54.3028 124.714 52.8737C125.029 51.8109 124.849 50.6168 124.228 49.5938C123.761 48.8295 123.08 48.2284 122.287 47.8423C123.387 46.3456 123.502 44.3036 122.438 42.8427C121.709 41.8357 120.502 41.2545 119.211 41.2107C119.406 40.2195 119.147 39.1528 118.457 38.3726C117.728 37.5446 116.66 37.1625 115.608 37.2819C115.656 36.1315 115.174 34.9931 114.261 34.2686C113.221 33.4486 111.803 33.3053 110.599 33.8069C110.316 32.1549 109.081 30.7538 107.435 30.4313C106.355 30.2243 105.208 30.511 104.287 31.2195C103.869 31.5419 103.518 31.936 103.251 32.3699C102.211 30.9249 100.458 30.1089 98.7284 30.4313C97.4174 30.6702 96.2977 31.53 95.6442 32.7281C94.9787 31.8882 94.0861 31.2434 93.066 30.8851C91.6514 30.3836 90.1451 30.4831 88.9377 31.1518C87.2919 32.0713 86.3595 33.9223 86.4073 35.8728C85.0286 35.2836 83.4187 35.3871 82.2591 36.2708C81.3744 36.9475 80.8245 38.0263 80.7488 39.2363C80.701 40.0723 80.8843 40.9042 81.2748 41.6326C79.8443 42.0028 78.6846 43.0855 78.3021 44.5305C77.8119 46.3695 78.7165 48.2921 80.3742 49.2116C79.6052 50.5332 79.4577 52.0577 80.0395 53.228C80.5097 54.1754 81.4541 54.8998 82.6296 55.2223C83.6258 55.5009 84.6978 55.4571 85.702 55.1148C85.3991 57.5748 85.1281 59.9392 85.0365 60.8309C84.8691 62.4987 84.7018 68.0039 89.2804 70.5594L89.5872 78.206L91.0895 79.2569L90.7627 71.1047C91.8187 71.3834 93.592 71.7496 95.5326 71.7496C97.4732 71.7496 99.4178 71.4033 101.107 70.3166C103.247 68.9313 104.479 66.6067 104.758 63.4023C104.793 63.0043 104.495 62.65 104.096 62.6142C103.694 62.5744 103.335 62.8769 103.303 63.2749C103.064 66.0016 102.064 67.9601 100.318 69.0866C96.6683 71.451 90.8265 69.616 90.2766 69.4369C90.2766 69.4369 90.2739 69.4355 90.2686 69.4329L90.2328 69.4249C86.2917 67.4108 86.2957 62.857 86.487 60.9782C86.5906 59.9472 86.9572 56.8702 87.3158 53.9764C87.5589 51.9741 87.794 50.0595 87.9295 48.9688C88.5432 49.1479 89.4159 49.3032 90.444 49.2156C91.763 49.0922 92.7353 47.9657 93.329 47.0144C93.7833 47.5278 94.5125 48.0374 95.68 48.2443C97.2022 48.515 98.3459 47.7627 99.0711 47.0183C99.4019 47.699 99.8761 48.1807 100.486 48.4593C101.251 48.8016 102.072 48.726 102.733 48.5469C102.709 49.2992 102.869 49.9878 103.231 50.5969C104.132 52.1373 105.937 52.5553 106.017 52.5712C106.208 52.615 106.403 52.5792 106.567 52.4757C107.288 52.0179 109.488 50.9352 110.962 51.4368C111.592 51.6477 112.034 52.1334 112.321 52.9135C112.775 54.1515 112.775 55.2382 112.313 56.1338C111.48 57.742 109.436 58.3271 109.416 58.3311C109.085 58.4227 108.862 58.7292 108.874 59.0755C109.248 66.2086 109.822 74.8902 110.464 75.7461C110.699 76.0565 111.4 76.4546 113.186 77.2467C112.305 78.9544 109.739 83.6315 106.033 87.8987L107.284 88.6829C111.113 84.2326 113.664 79.5196 114.52 77.8358C115.066 78.0627 115.672 78.3254 116.365 78.62C115.437 80.3316 112.811 84.9491 109.157 89.9089L110.364 90.7289C114.142 85.5979 116.832 80.8252 117.724 79.1853C118.202 79.3843 118.712 79.5992 119.258 79.8221C122.972 81.3626 127.18 83.1141 129.97 84.4714C130.408 84.6864 130.898 84.9252 131.424 85.176C139.25 88.9336 155.537 96.7554 163.255 109.72C169.248 119.779 170.659 133.329 167.491 143.77C159.007 131.151 146.475 132.628 143.757 133.122C143.215 132.25 142.685 131.39 142.155 130.538C141.028 128.715 139.916 126.92 138.828 125.165C139.533 123.891 142.765 119.051 152.265 116.396C152.655 116.284 152.883 115.886 152.771 115.496C152.663 115.106 152.261 114.883 151.87 114.99C143.012 117.466 139.29 121.729 137.955 123.775C136.043 120.718 134.178 117.777 132.349 114.998C130.651 112.415 128.981 109.975 127.328 107.702L126.961 107.196L126.917 107.137L126.658 106.926C126.754 106.974 126.842 107.041 126.917 107.137C125.554 105.274 124.196 103.534 122.845 101.926C122.821 101.886 122.793 101.847 122.757 101.815H122.753C122.586 101.612 122.422 101.417 122.255 101.226C121.948 101.548 121.554 101.954 121.215 102.261C118.987 104.311 109.798 112.538 99.8681 118.187C93.6876 121.706 89.4398 124.01 86.6304 125.539C83.4067 127.286 82.9245 127.557 82.7014 127.84C82.283 128.361 82.1554 128.52 89.8024 140.932C93.7872 147.408 97.8956 153.888 99.1469 155.688C100.737 157.969 106.913 167.916 111.882 175.909C114.843 180.674 117.401 184.794 118.103 185.86C118.712 186.78 119.29 187.751 119.8 188.607C121.187 190.932 121.861 192.054 122.701 192.054C122.741 192.054 122.781 192.05 122.825 192.046C123.598 191.951 138.701 186.465 147.746 180.196C155.05 175.137 161.534 168.684 163.666 166.117L164.546 164.819C164.483 164.728 164.415 164.628 164.351 164.532C164.331 164.497 164.307 164.461 164.287 164.429H164.279ZM158.449 157.344C158.449 157.344 158.426 157.363 158.41 157.379C152.054 162.383 146.846 161.113 145.323 159.712C144.538 158.992 144.526 157.925 144.658 157.156C144.769 156.472 145.036 155.767 145.411 155.13C147.551 154.673 148.794 153.741 149.189 152.953C149.436 152.463 149.388 151.966 149.065 151.631C148.778 151.329 148.204 151.074 147.105 151.56C146.128 151.994 145.212 152.814 144.506 153.825C143.431 153.984 142.08 154.024 140.414 153.829C139.629 153.737 139.119 153.447 138.896 152.965C138.605 152.324 138.844 151.464 139.199 150.939C139.525 150.449 139.988 149.98 140.518 149.55C141.426 149.665 142.474 149.689 143.678 149.574C146.543 149.311 148.18 148.236 148.053 146.711C148.005 146.102 147.599 145.649 146.973 145.482C145.523 145.107 142.466 146.357 140.219 147.981C138.553 147.675 137.254 147.018 137.162 146.11C136.879 143.352 139.633 141.274 146.375 139.156C146.391 139.152 146.411 139.148 146.423 139.14C146.507 139.117 146.579 139.077 146.642 139.029C146.67 139.009 146.694 138.985 146.722 138.961C146.75 138.937 146.774 138.91 146.802 138.874C146.865 138.782 146.909 138.675 146.929 138.563C146.933 138.523 146.937 138.492 146.937 138.452V138.444C146.937 138.408 146.933 138.376 146.929 138.336C146.925 138.313 146.921 138.285 146.909 138.253C146.909 138.245 146.909 138.237 146.905 138.229C146.897 138.205 146.889 138.181 146.877 138.157C146.862 138.129 146.85 138.094 146.83 138.066C146.822 138.046 146.806 138.026 146.794 138.006C146.049 136.816 145.315 135.638 144.59 134.467C145.311 134.36 146.379 134.244 147.69 134.244C148.93 134.244 150.388 134.348 151.958 134.658C158.155 135.868 163.175 139.539 166.897 145.557C165.981 148.041 164.789 150.318 163.311 152.276C161.769 154.318 160.151 156.018 158.497 157.332C158.489 157.336 158.473 157.348 158.461 157.356L158.449 157.344ZM142.622 148.164C144.14 147.352 145.678 146.847 146.363 146.847C146.455 146.847 146.535 146.855 146.591 146.875C146.547 147.356 145.427 147.938 143.538 148.113C143.231 148.141 142.924 148.156 142.618 148.16L142.622 148.164Z" fill="#2C4858"/>
<path d="M52.2455 146.506C52.0742 146.872 52.2375 147.31 52.6002 147.477C52.6958 147.521 52.8034 147.545 52.907 147.545C53.1859 147.545 53.449 147.389 53.5685 147.123C55.9594 142.008 62.5145 140.069 64.4432 139.599L63.7897 138.254C61.3549 138.871 54.8197 141 52.2455 146.506Z" fill="#2C4858"/>
<path d="M67.1843 45.755C67.1644 45.7192 67.1444 45.6913 67.1245 45.6595C60.4818 35.2025 54.5443 25.7407 53.6915 24.3396C53.6676 24.2998 53.6477 24.2679 53.6238 24.2281C53.2891 23.6788 52.9225 23.0618 52.5439 22.4289C52.4841 22.3334 52.4284 22.2299 52.3686 22.1383C52.3726 22.1344 52.3686 22.1304 52.3646 22.1224C49.2205 16.8322 48.5431 15.9884 47.6983 16.1317C47.6107 16.1476 47.4991 16.1754 47.3636 16.2113C47.252 16.2471 47.1165 16.279 46.9731 16.3068C46.9253 16.3307 46.8695 16.3506 46.8137 16.3665C39.2903 18.1896 29.7705 24.9128 27.8139 26.3338C27.8179 26.3378 27.8219 26.3498 27.8299 26.3537C27.806 26.3737 27.778 26.3975 27.7462 26.4174C27.7422 26.4214 27.7422 26.4254 27.7382 26.4254C27.6505 26.4891 27.5549 26.5568 27.4832 26.6045C27.0369 26.927 26.1004 27.5877 26.6264 28.4236C26.6703 28.4913 27.2162 29.363 28.1446 30.8398C28.7145 31.7554 29.4278 32.8978 30.2606 34.2233C30.2806 34.2631 30.3044 34.3029 30.3323 34.3388C33.9107 40.0509 39.5812 49.0987 45.0364 57.8161C45.0564 57.8519 45.0803 57.8838 45.1002 57.9196C45.164 58.0271 45.2277 58.1226 45.2915 58.2261C45.7139 58.1903 46.2598 58.1146 46.8256 57.9355C46.8456 57.9315 46.8655 57.9196 46.8894 57.9156C47.6625 57.6768 48.4236 57.43 49.1767 57.1593C49.4238 57.0717 49.6748 56.9842 49.9219 56.8886C52.8946 55.7741 55.684 54.4048 58.2542 52.8006C58.306 52.7727 59.5054 52.0085 66.3395 47.1283C66.3395 47.1283 66.8296 46.5949 67.3436 45.9938C67.2918 45.9142 67.24 45.8386 67.1922 45.759L67.1843 45.755Z" fill="#2C4858"/>
<path d="M93.6325 60.6076C92.5247 60.723 91.1857 60.7867 90.5721 60.723C90.592 59.6682 91.2893 56.4439 92.0026 53.7332C92.1102 53.3431 91.8751 52.945 91.4886 52.8415C91.0981 52.7341 90.6996 52.9689 90.592 53.355C88.4561 61.4077 89.1335 61.7261 89.6715 61.9889C90.0062 62.1481 90.6438 62.2038 91.3412 62.2038C92.2417 62.2038 93.2339 62.1162 93.7878 62.0565C94.1863 62.0127 94.4772 61.6545 94.4334 61.2525C94.3895 60.8504 94.0309 60.5678 93.6285 60.5996L93.6325 60.6076Z" fill="#2C4858"/>
<path d="M109.281 55.2982C109.281 55.2982 109.357 55.0395 109.592 54.94C109.8 54.8524 109.995 54.9241 110.035 54.94C110.405 55.0992 110.836 54.9241 110.991 54.5539C111.15 54.1837 110.975 53.7538 110.604 53.5986C110.361 53.4951 109.724 53.2881 109.011 53.5986C108.202 53.9488 107.935 54.6813 107.875 54.9002C107.763 55.2863 107.99 55.6923 108.377 55.7998C108.445 55.8197 108.508 55.8277 108.576 55.8277C108.895 55.8277 109.186 55.6167 109.277 55.2982H109.281Z" fill="#2C4858"/>
<path d="M45.3237 15.2645C37.7843 17.4777 29.1253 23.572 27.0333 25.0965C27.0293 25.0965 27.0293 25.0925 27.0293 25.0925C26.296 23.974 25.3795 22.5848 25.0488 21.518C24.8097 20.7577 25.4911 19.9855 26.1964 19.3446C28.9818 16.7692 39.9601 10.1217 42.4108 11.0969C42.5463 11.1486 42.6658 11.2442 42.7455 11.3636C43.1121 11.9129 43.4628 12.4582 43.7935 12.9837C44.3355 13.8315 44.8535 14.6436 45.3277 15.2645H45.3237Z" fill="#2C4858"/>
<path d="M143.847 205.382C136.738 209.804 132.183 217.455 131.028 226.916L131.004 227.115C130.956 227.513 131.239 227.88 131.637 227.931C131.665 227.931 131.701 227.935 131.729 227.935C132.088 227.935 132.406 227.665 132.454 227.298L132.478 227.095C133.578 218.076 137.89 210.803 144.616 206.623C157.977 198.316 171.868 202.643 172.004 202.691C172.383 202.818 172.797 202.611 172.928 202.233C173.056 201.851 172.849 201.437 172.47 201.305C172.323 201.262 157.77 196.72 143.847 205.385V205.382Z" fill="#2C4858"/>
</g>
<mask id="mask1_745_3217" style="mask-type:alpha" maskUnits="userSpaceOnUse" x="0" y="18" width="200" height="200">
<circle cx="100" cy="118" r="100" fill="#D9D9D9"/>
</mask>
<g mask="url(#mask1_745_3217)">
<line x1="200.071" y1="18.0711" x2="0.0710712" y2="218.071" stroke="#BA2828" stroke-width="20"/>
</g>
</svg>
